<svg width="22" height="31" viewBox="0 0 22 31" fill="none" xmlns="http://www.w3.org/2000/svg">
<g filter="url(#filter0_d)">
<path d="M16.3738 0H5.62824C5.19674 0.00106214 4.78323 0.167559 4.47811 0.463097C4.17299 0.758634 4.0011 1.15916 4 1.57711V21.4229C4.0011 21.8408 4.17299 22.2414 4.47811 22.5369C4.78323 22.8324 5.19674 22.9989 5.62824 23H16.3738C16.8051 22.9989 17.2184 22.8324 17.5232 22.5368C17.828 22.2412 17.9995 21.8406 18 21.4229V1.57711C17.9995 1.15935 17.828 0.758814 17.5232 0.463219C17.2184 0.167625 16.8051 0.00106404 16.3738 0ZM7.94496 21.1845H6.19003C6.0347 21.1845 5.88573 21.1247 5.7759 21.0183C5.66606 20.9119 5.60436 20.7677 5.60436 20.6172C5.60436 20.4668 5.66606 20.3225 5.7759 20.2161C5.88573 20.1097 6.0347 20.0499 6.19003 20.0499H7.94496C8.10029 20.0499 8.24926 20.1097 8.35909 20.2161C8.46893 20.3225 8.53063 20.4668 8.53063 20.6172C8.53063 20.7677 8.46893 20.9119 8.35909 21.0183C8.24926 21.1247 8.10029 21.1845 7.94496 21.1845ZM7.94496 19.023H6.19003C6.03497 19.023 5.88627 18.9634 5.77663 18.8572C5.66699 18.751 5.6054 18.6069 5.6054 18.4567C5.6054 18.3066 5.66699 18.1625 5.77663 18.0563C5.88627 17.9501 6.03497 17.8904 6.19003 17.8904H7.94496C8.10002 17.8904 8.24872 17.9501 8.35836 18.0563C8.468 18.1625 8.5296 18.3066 8.5296 18.4567C8.5296 18.6069 8.468 18.751 8.35836 18.8572C8.24872 18.9634 8.10002 19.023 7.94496 19.023ZM7.94496 16.8635H6.19003C6.0347 16.8635 5.88573 16.8037 5.7759 16.6974C5.66606 16.591 5.60436 16.4467 5.60436 16.2962C5.60436 16.1458 5.66606 16.0015 5.7759 15.8951C5.88573 15.7887 6.0347 15.729 6.19003 15.729H7.94496C8.10029 15.729 8.24926 15.7887 8.35909 15.8951C8.46893 16.0015 8.53063 16.1458 8.53063 16.2962C8.53063 16.4467 8.46893 16.591 8.35909 16.6974C8.24926 16.8037 8.10029 16.8635 7.94496 16.8635ZM7.94496 14.702H6.19003C6.0347 14.702 5.88573 14.6423 5.7759 14.5359C5.66606 14.4295 5.60436 14.2852 5.60436 14.1347C5.60436 13.9843 5.66606 13.84 5.7759 13.7336C5.88573 13.6272 6.0347 13.5674 6.19003 13.5674H7.94496C8.10029 13.5674 8.24926 13.6272 8.35909 13.7336C8.46893 13.84 8.53063 13.9843 8.53063 14.1347C8.53063 14.2852 8.46893 14.4295 8.35909 14.5359C8.24926 14.6423 8.10029 14.702 7.94496 14.702ZM11.8775 21.1855H10.1246C9.96928 21.1855 9.82031 21.1257 9.71048 21.0193C9.60065 20.913 9.53894 20.7687 9.53894 20.6182C9.53894 20.4678 9.60065 20.3235 9.71048 20.2171C9.82031 20.1107 9.96928 20.0509 10.1246 20.0509H11.8775C12.0328 20.0509 12.1818 20.1107 12.2916 20.2171C12.4014 20.3235 12.4631 20.4678 12.4631 20.6182C12.4631 20.7687 12.4014 20.913 12.2916 21.0193C12.1818 21.1257 12.0328 21.1855 11.8775 21.1855ZM11.8775 19.024H10.1246C10.0478 19.024 9.97181 19.0093 9.90088 18.9809C9.82995 18.9524 9.7655 18.9107 9.71121 18.8581C9.65692 18.8056 9.61386 18.7431 9.58448 18.6744C9.5551 18.6057 9.53998 18.5321 9.53998 18.4577C9.53998 18.3834 9.5551 18.3097 9.58448 18.241C9.61386 18.1723 9.65692 18.1099 9.71121 18.0573C9.7655 18.0047 9.82995 17.963 9.90088 17.9346C9.97181 17.9061 10.0478 17.8915 10.1246 17.8915H11.8775C11.9542 17.8915 12.0303 17.9061 12.1012 17.9346C12.1721 17.963 12.2366 18.0047 12.2909 18.0573C12.3452 18.1099 12.3882 18.1723 12.4176 18.241C12.447 18.3097 12.4621 18.3834 12.4621 18.4577C12.4621 18.5321 12.447 18.6057 12.4176 18.6744C12.3882 18.7431 12.3452 18.8056 12.2909 18.8581C12.2366 18.9107 12.1721 18.9524 12.1012 18.9809C12.0303 19.0093 11.9542 19.024 11.8775 19.024ZM11.8775 16.8645H10.1246C9.96928 16.8645 9.82031 16.8048 9.71048 16.6984C9.60065 16.592 9.53894 16.4477 9.53894 16.2972C9.53894 16.1468 9.60065 16.0025 9.71048 15.8961C9.82031 15.7897 9.96928 15.73 10.1246 15.73H11.8775C12.0328 15.73 12.1818 15.7897 12.2916 15.8961C12.4014 16.0025 12.4631 16.1468 12.4631 16.2972C12.4631 16.4477 12.4014 16.592 12.2916 16.6984C12.1818 16.8048 12.0328 16.8645 11.8775 16.8645ZM11.8775 14.703H10.1246C10.0477 14.703 9.97154 14.6884 9.90048 14.6598C9.82943 14.6313 9.76486 14.5895 9.71048 14.5369C9.6561 14.4842 9.61295 14.4217 9.58352 14.3528C9.55409 14.284 9.53894 14.2102 9.53894 14.1357C9.53894 14.0612 9.55409 13.9875 9.58352 13.9187C9.61295 13.8498 9.6561 13.7873 9.71048 13.7346C9.76486 13.6819 9.82943 13.6401 9.90048 13.6116C9.97154 13.5831 10.0477 13.5685 10.1246 13.5685H11.8775C11.9544 13.5685 12.0305 13.5831 12.1016 13.6116C12.1726 13.6401 12.2372 13.6819 12.2916 13.7346C12.346 13.7873 12.3891 13.8498 12.4186 13.9187C12.448 13.9875 12.4631 14.0612 12.4631 14.1357C12.4631 14.2102 12.448 14.284 12.4186 14.3528C12.3891 14.4217 12.346 14.4842 12.2916 14.5369C12.2372 14.5895 12.1726 14.6313 12.1016 14.6598C12.0305 14.6884 11.9544 14.703 11.8775 14.703ZM15.81 21.1865H14.055C13.8997 21.1865 13.7507 21.1267 13.6409 21.0204C13.5311 20.914 13.4694 20.7697 13.4694 20.6192C13.4694 20.4688 13.5311 20.3245 13.6409 20.2181C13.7507 20.1117 13.8997 20.052 14.055 20.052H15.81C15.9653 20.052 16.1143 20.1117 16.2241 20.2181C16.3339 20.3245 16.3956 20.4688 16.3956 20.6192C16.3956 20.7697 16.3339 20.914 16.2241 21.0204C16.1143 21.1267 15.9653 21.1865 15.81 21.1865ZM15.81 19.025H14.055C13.9 19.025 13.7513 18.9653 13.6416 18.8591C13.532 18.753 13.4704 18.6089 13.4704 18.4587C13.4704 18.3085 13.532 18.1645 13.6416 18.0583C13.7513 17.9521 13.9 17.8925 14.055 17.8925H15.81C15.965 17.8925 16.1137 17.9521 16.2234 18.0583C16.333 18.1645 16.3946 18.3085 16.3946 18.4587C16.3946 18.6089 16.333 18.753 16.2234 18.8591C16.1137 18.9653 15.965 19.025 15.81 19.025ZM15.81 16.8655H14.055C13.9781 16.8655 13.902 16.8509 13.8309 16.8223C13.7599 16.7938 13.6953 16.7521 13.6409 16.6994C13.5865 16.6467 13.5434 16.5842 13.5139 16.5153C13.4845 16.4465 13.4694 16.3727 13.4694 16.2982C13.4694 16.2237 13.4845 16.15 13.5139 16.0812C13.5434 16.0123 13.5865 15.9498 13.6409 15.8971C13.6953 15.8444 13.7599 15.8026 13.8309 15.7741C13.902 15.7456 13.9781 15.731 14.055 15.731H15.81C15.8869 15.731 15.963 15.7456 16.0341 15.7741C16.1052 15.8026 16.1697 15.8444 16.2241 15.8971C16.2785 15.9498 16.3216 16.0123 16.3511 16.0812C16.3805 16.15 16.3956 16.2237 16.3956 16.2982C16.3956 16.3727 16.3805 16.4465 16.3511 16.5153C16.3216 16.5842 16.2785 16.6467 16.2241 16.6994C16.1697 16.7521 16.1052 16.7938 16.0341 16.8223C15.963 16.8509 15.8869 16.8655 15.81 16.8655ZM15.81 14.704H14.055C13.8997 14.704 13.7507 14.6442 13.6409 14.5379C13.5311 14.4315 13.4694 14.2872 13.4694 14.1367C13.4694 13.9863 13.5311 13.842 13.6409 13.7356C13.7507 13.6292 13.8997 13.5695 14.055 13.5695H15.81C15.9653 13.5695 16.1143 13.6292 16.2241 13.7356C16.3339 13.842 16.3956 13.9863 16.3956 14.1367C16.3956 14.2872 16.3339 14.4315 16.2241 14.5379C16.1143 14.6442 15.9653 14.704 15.81 14.704ZM16.433 12.2619H5.56905V1.85171H16.4299L16.433 12.2619Z" fill="#030303"/>
</g>
<defs>
<filter id="filter0_d" x="0" y="0" width="22" height="31" filterUnits="userSpaceOnUse" color-interpolation-filters="sRGB">
<feFlood flood-opacity="0" result="BackgroundImageFix"/>
<feColorMatrix in="SourceAlpha" type="matrix" values="0 0 0 0 0 0 0 0 0 0 0 0 0 0 0 0 0 0 127 0" result="hardAlpha"/>
<feOffset dy="4"/>
<feGaussianBlur stdDeviation="2"/>
<feComposite in2="hardAlpha" operator="out"/>
<feColorMatrix type="matrix" values="0 0 0 0 0 0 0 0 0 0 0 0 0 0 0 0 0 0 0.25 0"/>
<feBlend mode="normal" in2="BackgroundImageFix" result="effect1_dropShadow"/>
<feBlend mode="normal" in="SourceGraphic" in2="effect1_dropShadow" result="shape"/>
</filter>
</defs>
</svg>
